<svg xmlns="http://www.w3.org/2000/svg" xmlns:xlink="http://www.w3.org/1999/xlink" width="500" zoomAndPan="magnify" viewBox="0 0 375 149.999998" height="200" preserveAspectRatio="xMidYMid meet" version="1.0"><defs><g/><clipPath id="abcce38950"><path d="M 3.800781 32.878906 L 114.800781 32.878906 L 114.800781 116.878906 L 3.800781 116.878906 Z M 3.800781 32.878906 " clip-rule="nonzero"/></clipPath></defs><g clip-path="url(#abcce38950)"><path fill="#1e3f48" d="M 113.636719 86.480469 C 112.089844 86.863281 110.503906 86.890625 108.925781 86.980469 C 106.492188 87.121094 104.066406 87.304688 101.660156 87.746094 C 101.273438 87.820312 101.035156 87.980469 100.785156 88.28125 C 97.714844 91.992188 95.269531 96.148438 92.472656 100.054688 C 89.191406 104.628906 85.890625 109.1875 82.476562 113.667969 C 81.761719 114.601562 81.277344 115.726562 80.1875 116.34375 C 79.570312 116.695312 78.976562 116.855469 78.222656 116.730469 C 69.441406 115.300781 60.699219 113.613281 51.863281 112.5 C 46.792969 111.863281 41.808594 110.675781 36.765625 109.871094 C 32.828125 109.238281 28.84375 108.859375 24.960938 107.957031 C 21.566406 107.164062 18.246094 106.050781 14.839844 105.320312 C 12.058594 104.726562 9.398438 103.796875 6.695312 102.964844 C 6.140625 102.796875 5.71875 102.441406 5.691406 101.871094 C 5.582031 99.921875 4.65625 98.207031 4.203125 96.359375 C 3.804688 94.730469 3.867188 93.207031 5.144531 91.96875 C 7.359375 89.8125 9.0625 87.269531 10.785156 84.734375 C 11.191406 84.132812 11.632812 83.546875 12.132812 83.027344 C 16.164062 78.882812 19.230469 73.945312 23.179688 69.730469 C 24.003906 68.851562 24.582031 67.738281 25.289062 66.746094 C 25.664062 66.214844 25.707031 65.722656 25.410156 65.105469 C 24.800781 63.832031 24.339844 62.496094 23.96875 61.128906 C 23.621094 59.832031 23.984375 59.242188 25.28125 58.988281 C 27.59375 58.542969 27.550781 58.539062 27.839844 55.96875 C 27.980469 54.679688 27.894531 53.335938 28.660156 52.152344 C 28.882812 51.808594 29.101562 51.542969 29.445312 51.332031 C 32.707031 49.324219 36.316406 48.375 40.050781 47.796875 C 42.144531 47.472656 44.242188 47.273438 45.949219 47.375 C 50.464844 47.335938 54.523438 47.65625 58.417969 49.078125 C 58.820312 49.226562 58.960938 49.113281 59.070312 48.792969 C 59.457031 47.691406 60.28125 46.933594 61.089844 46.148438 C 61.75 45.503906 62.375 44.824219 62.984375 44.132812 C 64.324219 42.625 65.738281 41.238281 67.519531 40.203125 C 69.703125 38.925781 71.691406 37.34375 73.976562 36.191406 C 76.773438 34.78125 79.777344 34.28125 82.789062 33.746094 C 84.996094 33.355469 87.222656 33.082031 89.460938 33.003906 C 91.945312 32.914062 92.53125 33.316406 93.457031 35.398438 C 94.21875 37.109375 94.820312 38.894531 95.570312 40.609375 C 98.210938 46.613281 101.316406 52.378906 104.679688 58.003906 C 106.070312 60.328125 106.980469 62.882812 108.242188 65.269531 C 109.199219 67.074219 110.144531 68.875 111.160156 70.648438 C 112.277344 72.605469 112.253906 72.539062 110.199219 73.617188 C 109.53125 73.96875 109.367188 74.121094 109.910156 74.726562 C 110.722656 75.632812 111.433594 76.632812 112.222656 77.558594 C 112.96875 78.429688 113.121094 79.425781 112.945312 80.5 C 112.796875 81.386719 112.894531 82.164062 113.5 82.898438 C 113.980469 83.476562 114.332031 84.171875 114.554688 84.898438 C 114.8125 85.738281 114.492188 86.265625 113.636719 86.480469 Z M 113.636719 86.480469 " fill-opacity="1" fill-rule="nonzero"/></g><path fill="#767fa7" d="M 112.71875 83.746094 C 113.535156 85.195312 113.957031 85.484375 112.03125 85.707031 C 110.953125 85.832031 109.867188 85.945312 108.78125 85.953125 C 103.1875 86.003906 97.847656 87.28125 92.566406 89.023438 C 88.34375 90.417969 84.191406 91.949219 80.195312 93.886719 C 78.675781 94.621094 77.082031 94.179688 75.320312 94.359375 C 71.273438 93.960938 67.023438 94.261719 62.785156 94.542969 C 58.945312 94.800781 55.144531 95.4375 51.332031 95.949219 C 48.320312 96.355469 45.390625 97.042969 42.449219 97.734375 C 40.800781 98.121094 40.609375 97.949219 40.132812 96.386719 C 39.464844 94.183594 38.625 92.035156 37.511719 90.019531 C 35.675781 86.695312 34.769531 82.976562 33.050781 79.621094 C 30.347656 74.347656 28.613281 68.660156 25.949219 63.375 C 25.550781 62.585938 25.339844 61.707031 24.984375 60.898438 C 24.777344 60.421875 24.921875 60.230469 25.378906 60.152344 C 25.863281 60.066406 26.351562 59.976562 26.835938 59.890625 C 27.164062 59.832031 27.332031 59.898438 27.460938 60.289062 C 27.9375 61.71875 28.511719 63.117188 29.003906 64.539062 C 30.1875 67.960938 31.867188 71.15625 33.4375 74.398438 C 34.125 75.820312 34.335938 77.398438 35.042969 78.824219 C 36.609375 82 38.09375 85.214844 39.292969 88.558594 C 39.914062 90.285156 40.296875 92.09375 41.078125 93.769531 C 41.597656 94.875 41.871094 95.085938 43.167969 94.859375 C 44.59375 94.605469 46.007812 94.3125 47.429688 94.023438 C 54.023438 92.695312 60.640625 91.554688 67.402344 91.585938 C 70.398438 91.597656 73.285156 92.277344 76.167969 92.960938 C 77.226562 93.214844 78.179688 93.148438 79.085938 92.53125 C 82.949219 89.902344 87.1875 88.050781 91.582031 86.527344 C 95.257812 85.25 99.023438 84.3125 102.902344 83.910156 C 104.308594 83.761719 105.730469 83.746094 107.148438 83.671875 C 108.820312 83.582031 110.511719 83.875 112.167969 83.476562 C 112.472656 83.402344 112.601562 83.535156 112.71875 83.746094 Z M 112.71875 83.746094 " fill-opacity="1" fill-rule="nonzero"/><path fill="#e48d7a" d="M 11.578125 94.363281 C 9.679688 93.882812 7.714844 93.65625 5.75 93.316406 C 12.714844 84.5625 19.605469 75.902344 26.484375 67.257812 C 27.265625 68.757812 27.839844 70.507812 28.546875 72.203125 C 28.652344 72.457031 28.554688 72.625 28.421875 72.832031 C 23.894531 79.804688 19.128906 86.613281 14.183594 93.304688 C 13.488281 94.25 12.839844 94.6875 11.578125 94.363281 Z M 86.042969 92.5 C 84.054688 93.265625 82.070312 94.039062 80.074219 94.789062 C 78.902344 95.226562 77.6875 95.625 76.429688 95.441406 C 75.679688 95.332031 75.375 95.632812 75.054688 96.191406 C 73.324219 99.210938 70.714844 100.589844 67.234375 100.253906 C 65.632812 100.097656 64.226562 99.339844 62.769531 98.738281 C 61.714844 98.304688 60.898438 97.554688 60.433594 96.5625 C 60.117188 95.894531 59.722656 95.832031 59.132812 95.894531 C 55.175781 96.320312 51.261719 97.042969 47.328125 97.628906 C 45.417969 97.917969 43.621094 98.792969 41.632812 98.722656 C 39.9375 98.664062 39.648438 98.480469 39.183594 96.90625 C 38.707031 95.300781 38.078125 93.75 37.40625 92.214844 C 36.09375 89.210938 34.515625 86.332031 33.453125 83.203125 C 32.792969 81.269531 31.953125 79.367188 30.9375 77.582031 C 26.519531 83.335938 23.863281 90.199219 18.941406 95.617188 C 21.15625 96.105469 23.246094 96.523438 25.316406 97.027344 C 29.011719 97.925781 32.632812 99.109375 36.371094 99.859375 C 40.4375 100.675781 44.5625 101.015625 48.679688 101.476562 C 53.152344 101.980469 57.648438 102.289062 62.101562 103.011719 C 65.050781 103.488281 68.0625 103.546875 70.984375 104.226562 C 72.722656 104.628906 74.464844 104.894531 76.242188 105.007812 C 76.730469 105.039062 76.9375 104.90625 77.171875 104.535156 C 77.695312 103.699219 78.21875 102.859375 78.828125 102.085938 C 81.300781 98.960938 83.804688 95.859375 86.296875 92.753906 C 86.523438 92.628906 86.699219 92.460938 86.816406 92.195312 C 86.5 92.1875 86.253906 92.292969 86.042969 92.5 Z M 86.042969 92.5 " fill-opacity="1" fill-rule="nonzero"/><path fill="#daa972" d="M 96.957031 89.386719 C 95.085938 92.175781 93.214844 94.960938 91.203125 97.648438 C 89.707031 99.648438 87.890625 101.414062 86.414062 103.429688 C 84.894531 105.503906 83.058594 107.324219 81.664062 109.496094 C 80.972656 110.574219 80.148438 111.566406 79.363281 112.582031 C 79.121094 112.898438 78.820312 113.203125 78.363281 113.089844 C 77.90625 112.976562 77.820312 112.578125 77.738281 112.175781 C 77.378906 110.410156 76.972656 108.648438 76.65625 106.871094 C 76.519531 106.09375 76.253906 105.707031 75.386719 105.808594 C 74.773438 105.882812 74.113281 105.875 73.515625 105.738281 C 70.007812 104.949219 66.433594 104.648438 62.890625 104.125 C 56.925781 103.25 50.933594 102.691406 44.945312 102.074219 C 39.296875 101.496094 33.773438 100.40625 28.351562 98.753906 C 25.21875 97.796875 22.015625 97.195312 18.765625 96.546875 C 19.171875 99.316406 19.5625 101.996094 19.964844 104.671875 C 20.039062 105.1875 20.261719 105.519531 20.871094 105.640625 C 22.128906 105.886719 23.347656 106.308594 24.601562 106.574219 C 28.535156 107.414062 32.53125 107.859375 36.503906 108.46875 C 42.003906 109.316406 47.433594 110.597656 52.964844 111.269531 C 61.410156 112.289062 69.761719 113.890625 78.136719 115.324219 C 79.53125 115.566406 80.21875 115.101562 80.886719 114.09375 C 82.046875 112.335938 83.226562 110.59375 84.621094 109 C 86.511719 106.835938 87.945312 104.339844 89.59375 102 C 92.6875 97.613281 95.835938 93.265625 98.960938 88.902344 C 99.054688 88.769531 99.175781 88.648438 99.085938 88.410156 C 98.214844 88.359375 97.515625 88.550781 96.957031 89.386719 Z M 73.265625 110.894531 C 72.964844 111.339844 73.066406 112.140625 72.28125 112.054688 C 71.222656 111.90625 70.21875 111.859375 69.285156 111.65625 C 68.316406 111.445312 67.675781 110.492188 67.007812 109.734375 C 66.945312 109.664062 66.960938 109.480469 66.996094 109.371094 C 67.140625 108.894531 68.761719 107.898438 69.273438 107.929688 C 70.121094 107.976562 70.949219 108.230469 71.816406 108.171875 C 72.609375 108.117188 72.824219 108.925781 73.335938 109.296875 C 74.050781 109.816406 73.636719 110.355469 73.265625 110.894531 Z M 15.078125 102.484375 C 15.253906 103 15.347656 103.542969 15.5 104.152344 C 13.152344 103.734375 10.972656 103.117188 8.804688 102.3125 C 7.421875 101.804688 6.734375 101.222656 6.574219 99.738281 C 6.453125 98.617188 5.925781 97.539062 5.582031 96.441406 C 5.5 96.191406 5.433594 95.9375 5.371094 95.679688 C 4.976562 93.980469 5.078125 93.894531 6.726562 94.238281 C 8.554688 94.625 10.394531 94.964844 12.234375 95.292969 C 12.597656 95.359375 12.847656 95.453125 12.949219 95.839844 C 13.535156 98.09375 14.324219 100.285156 15.078125 102.484375 Z M 61.023438 95.710938 C 65.363281 95.476562 69.601562 95.214844 73.957031 95.363281 C 72.398438 98.460938 69.207031 99.71875 65.773438 98.574219 C 64.566406 98.171875 63.285156 97.902344 62.234375 97.121094 C 61.785156 96.789062 61.382812 96.402344 61.023438 95.710938 Z M 52.117188 69.257812 C 53.394531 72.625 54.691406 75.980469 55.988281 79.359375 C 54.890625 79.808594 53.78125 79.535156 52.722656 79.722656 C 51.03125 80.019531 49.414062 80.535156 47.894531 81.335938 C 47.332031 81.632812 47.089844 81.550781 46.882812 80.917969 C 45.914062 77.957031 44.875 75.023438 43.679688 72.148438 C 43.332031 71.308594 42.875 70.519531 42.476562 69.726562 C 45.253906 68.839844 48.023438 68.40625 50.871094 68.425781 C 51.554688 68.429688 51.890625 68.660156 52.117188 69.257812 Z M 52.117188 69.257812 " fill-opacity="1" fill-rule="nonzero"/><path fill="#e5dad8" d="M 30.328125 56.265625 C 31.726562 60.195312 33.667969 63.898438 35.101562 67.8125 C 36.066406 70.4375 37.097656 73.03125 38.53125 75.441406 C 39.34375 76.808594 39.953125 78.25 40.429688 79.757812 C 41.253906 82.351562 42.394531 84.835938 43.023438 87.496094 C 43.15625 88.058594 43.480469 88.578125 43.667969 89.003906 C 54.359375 84.0625 65.1875 83.226562 76.414062 87.09375 C 75.929688 85.523438 75.320312 84.011719 74.558594 82.558594 C 72.34375 78.335938 70.195312 74.078125 67.894531 69.902344 C 65.554688 65.648438 64.207031 60.984375 62.148438 56.613281 C 61.378906 54.976562 60.394531 53.445312 59.707031 51.785156 C 59.261719 50.714844 58.585938 50.210938 57.535156 49.941406 C 51.441406 48.378906 45.304688 48.144531 39.117188 49.292969 C 35.863281 49.894531 32.726562 50.824219 29.851562 52.53125 C 29.273438 52.871094 29.152344 53.167969 29.425781 53.777344 C 29.785156 54.582031 30.03125 55.4375 30.328125 56.265625 Z M 56.367188 80.496094 C 53.519531 80.574219 50.777344 81.132812 48.128906 82.21875 C 46.761719 82.777344 46.613281 82.609375 46.019531 81.230469 C 44.480469 77.644531 43.4375 73.863281 41.71875 70.347656 C 41.207031 69.292969 41.429688 69.019531 42.59375 68.777344 C 44.003906 68.488281 45.324219 67.851562 46.777344 67.722656 C 47.789062 67.632812 48.792969 67.484375 49.804688 67.363281 C 49.804688 67.398438 49.808594 67.4375 49.808594 67.472656 C 50.433594 67.472656 51.058594 67.476562 51.679688 67.46875 C 52.457031 67.460938 52.757812 67.988281 52.980469 68.605469 C 53.976562 71.34375 54.972656 74.082031 55.972656 76.820312 C 56.308594 77.742188 56.636719 78.667969 57.015625 79.574219 C 57.304688 80.269531 56.996094 80.480469 56.367188 80.496094 Z M 70.613281 80.140625 C 70.503906 80.675781 70.011719 80.515625 69.714844 80.441406 C 68.4375 80.125 67.152344 79.941406 65.839844 79.796875 C 64.503906 79.648438 63.21875 79.8125 61.917969 79.976562 C 61.390625 80.046875 60.871094 80.050781 60.347656 80.0625 C 60.074219 80.074219 59.78125 80.019531 59.777344 79.679688 C 59.777344 79.417969 60.023438 79.3125 60.261719 79.273438 C 61.6875 79.046875 63.109375 78.820312 64.332031 78.625 C 66.375 78.847656 68.207031 78.992188 69.96875 79.574219 C 70.261719 79.671875 70.710938 79.664062 70.613281 80.140625 Z M 68.078125 76.292969 C 68.453125 76.417969 68.945312 76.515625 68.792969 77.03125 C 68.660156 77.496094 68.164062 77.339844 67.847656 77.261719 C 66.082031 76.828125 64.269531 76.769531 62.511719 76.472656 C 61.339844 76.617188 60.199219 76.800781 59.042969 76.726562 C 58.785156 76.710938 58.375 76.859375 58.359375 76.394531 C 58.34375 75.976562 58.773438 75.96875 59.011719 75.953125 C 60.898438 75.816406 62.769531 75.28125 64.683594 75.726562 C 65.800781 75.984375 66.976562 75.917969 68.078125 76.292969 Z M 66.109375 71.808594 C 66.109375 72.121094 65.875 72.167969 65.632812 72.171875 C 65.402344 72.179688 65.171875 72.175781 64.714844 72.175781 C 62.789062 71.648438 60.695312 72.101562 58.59375 72.515625 C 58.257812 72.582031 57.785156 72.660156 57.699219 72.167969 C 57.601562 71.613281 58.0625 71.578125 58.464844 71.523438 C 59.730469 71.347656 60.992188 71.121094 62.261719 70.992188 C 63.417969 70.875 64.535156 71.289062 65.683594 71.359375 C 65.945312 71.375 66.113281 71.539062 66.109375 71.808594 Z M 63.277344 67.421875 C 63.796875 67.441406 64.324219 67.582031 64.742188 67.933594 C 64.917969 68.078125 65.078125 68.269531 64.933594 68.527344 C 64.824219 68.726562 64.632812 68.8125 64.429688 68.746094 C 61.828125 67.890625 59.136719 68.300781 56.484375 68.1875 C 56.382812 68.183594 56.285156 68.1875 56.1875 68.183594 C 55.90625 68.164062 55.632812 68.089844 55.597656 67.773438 C 55.554688 67.386719 55.878906 67.238281 56.167969 67.226562 C 57.054688 67.191406 57.945312 67.214844 58.550781 67.214844 C 60.328125 67.046875 61.792969 67.359375 63.277344 67.421875 Z M 60.894531 62.777344 C 61.261719 62.882812 61.628906 63.035156 61.5 63.507812 C 61.378906 63.9375 60.972656 63.878906 60.664062 63.804688 C 57.710938 63.070312 54.699219 63.121094 51.714844 63.316406 C 47.824219 63.574219 43.886719 63.574219 40.085938 64.636719 C 39.328125 64.847656 38.605469 65.171875 37.847656 65.394531 C 37.589844 65.46875 37.179688 65.546875 37.054688 65.207031 C 36.90625 64.8125 37.351562 64.777344 37.578125 64.65625 C 39.582031 63.597656 41.746094 63.0625 43.984375 62.871094 C 47.425781 62.578125 50.855469 62.125 54.683594 62.242188 C 56.332031 62.210938 58.339844 62.214844 60.320312 62.636719 C 60.515625 62.675781 60.707031 62.722656 60.894531 62.777344 Z M 59.882812 58.050781 C 59.757812 58.675781 59.1875 58.449219 58.730469 58.367188 C 54.359375 57.585938 50.015625 58.015625 45.660156 58.574219 C 42.6875 58.957031 39.753906 59.449219 36.882812 60.3125 C 36.726562 60.359375 36.546875 60.4375 36.40625 60.402344 C 36.179688 60.339844 35.8125 60.386719 35.800781 60.042969 C 35.792969 59.78125 36.085938 59.753906 36.300781 59.671875 C 39.382812 58.464844 42.617188 57.960938 45.867188 57.480469 C 48.347656 57.113281 50.828125 56.847656 53.429688 56.890625 C 55.222656 56.773438 57.085938 56.980469 58.941406 57.304688 C 59.382812 57.382812 60.003906 57.433594 59.882812 58.050781 Z M 34.933594 54.511719 C 37.007812 53.1875 39.390625 52.78125 41.746094 52.378906 C 43.492188 52.078125 45.261719 51.882812 47.046875 51.925781 C 50.617188 51.949219 54.109375 52.546875 57.582031 53.316406 C 58.015625 53.414062 58.558594 53.523438 58.460938 54.035156 C 58.34375 54.652344 57.789062 54.457031 57.324219 54.351562 C 53.660156 53.519531 49.964844 52.816406 46.195312 53.015625 C 42.480469 53.214844 38.800781 53.71875 35.371094 55.320312 C 35.0625 55.464844 34.664062 55.757812 34.417969 55.308594 C 34.167969 54.847656 34.648438 54.695312 34.933594 54.511719 Z M 111.097656 79.246094 C 111.4375 79.308594 111.863281 79.253906 111.824219 79.824219 C 111.785156 80.421875 111.34375 80.257812 111.019531 80.253906 C 109.636719 80.242188 108.253906 80.238281 106.875 80.4375 C 100.316406 81.375 93.730469 82.234375 87.628906 85.023438 C 85.167969 86.148438 82.492188 86.90625 80.449219 88.84375 C 80.132812 89.144531 79.71875 89.351562 79.472656 90.011719 C 89.472656 83.933594 100.253906 81.421875 111.730469 81.109375 C 111.464844 82.636719 111.464844 82.652344 109.90625 82.582031 C 101.75 82.222656 94.046875 84.003906 86.605469 87.273438 C 83.996094 88.421875 81.457031 89.652344 79.179688 91.324219 C 77.753906 92.371094 76.347656 92.078125 74.988281 91.613281 C 69.765625 89.839844 64.472656 90.277344 59.140625 90.839844 C 53.726562 91.414062 48.449219 92.679688 43.152344 93.863281 C 43.03125 93.890625 42.902344 93.867188 42.757812 93.867188 C 42.785156 93.070312 43.144531 92.695312 43.890625 92.386719 C 47.761719 90.777344 51.738281 89.570312 55.902344 89.042969 C 59.398438 88.601562 62.910156 88.0625 66.4375 88.421875 C 69.046875 88.6875 71.59375 89.382812 74.136719 90.039062 C 75.101562 90.289062 76.0625 90.71875 77.140625 90.363281 C 73.597656 88.925781 69.9375 87.941406 66.113281 87.554688 C 62.238281 87.164062 58.417969 87.734375 54.609375 88.230469 C 50.746094 88.734375 47.09375 90.023438 43.53125 91.757812 C 43.453125 90.996094 43.855469 90.578125 44.375 90.203125 C 46.28125 88.820312 48.523438 88.289062 50.726562 87.597656 C 55.617188 86.066406 60.613281 85.644531 65.679688 86.070312 C 69.421875 86.382812 73.164062 86.800781 76.535156 88.707031 C 77.074219 89.011719 77.636719 89.019531 78.25 88.828125 C 79.839844 88.335938 81.222656 87.445312 82.671875 86.683594 C 88.71875 83.507812 94.960938 80.839844 101.761719 79.746094 C 104.554688 79.296875 107.382812 79.019531 110.222656 79.113281 C 110.515625 79.125 110.808594 79.191406 111.097656 79.246094 Z M 79.019531 105.269531 C 78.894531 105.457031 78.578125 105.703125 78.941406 105.929688 C 79.238281 106.113281 79.453125 105.84375 79.589844 105.636719 C 80.644531 104.070312 82.003906 102.765625 83.214844 101.332031 C 85.546875 98.5625 87.929688 95.832031 89.925781 92.792969 C 90.464844 91.976562 91.332031 91.414062 91.875 90.570312 C 92.085938 90.242188 92.523438 90.179688 93.117188 90.164062 C 92.042969 91.644531 91.207031 93.058594 90.15625 94.328125 C 86.898438 98.257812 83.46875 102.039062 80.371094 106.097656 C 80.03125 106.539062 79.738281 107.019531 79.4375 107.488281 C 79.304688 107.695312 79.238281 107.972656 79.453125 108.117188 C 79.675781 108.261719 79.894531 108.0625 80.046875 107.886719 C 80.578125 107.257812 81.152344 106.65625 81.613281 105.976562 C 82.910156 104.0625 84.488281 102.375 85.914062 100.5625 C 87.699219 98.285156 89.675781 96.164062 91.515625 93.929688 C 92.542969 92.6875 93.488281 91.375 94.421875 90.058594 C 94.84375 89.460938 95.386719 89.238281 96.015625 89.1875 C 90.789062 97.035156 84.226562 103.851562 78.722656 111.71875 C 78.320312 109.847656 77.96875 108.1875 77.609375 106.53125 C 77.5 106.03125 77.71875 105.660156 77.984375 105.261719 C 79.730469 102.617188 81.777344 100.199219 83.773438 97.75 C 85.3125 95.863281 86.585938 93.773438 88.285156 92 C 88.894531 91.363281 89.570312 91.191406 90.371094 90.925781 C 87.433594 94.867188 84.449219 98.648438 81.230469 102.242188 C 80.390625 103.179688 79.710938 104.226562 79.019531 105.269531 Z M 28.828125 56.609375 C 28.660156 56.039062 28.847656 55.460938 29.011719 54.890625 C 30.15625 59.042969 32.207031 62.8125 33.640625 66.820312 C 34.925781 70.410156 36.480469 73.859375 38.246094 77.253906 C 39.765625 80.179688 40.765625 83.375 41.660156 86.566406 C 41.953125 87.617188 42.316406 88.621094 42.816406 89.585938 C 42.976562 89.898438 43.292969 90.246094 42.835938 90.769531 C 41.992188 88.527344 40.699219 86.59375 39.941406 84.402344 C 39.386719 82.792969 38.769531 81.203125 37.949219 79.714844 C 36.351562 76.808594 35.175781 73.730469 34.058594 70.625 C 33.261719 68.410156 32.246094 66.289062 31.332031 64.125 C 30.300781 61.679688 29.582031 59.140625 28.828125 56.609375 Z M 28.734375 60.96875 C 28.449219 60.015625 28.351562 59.121094 28.585938 58.109375 C 28.773438 58.722656 28.988281 59.328125 29.144531 59.949219 C 29.699219 62.113281 30.511719 64.191406 31.515625 66.175781 C 33.085938 69.28125 34.097656 72.601562 35.332031 75.832031 C 36.152344 77.992188 37.410156 79.917969 38.292969 82.035156 C 38.492188 82.511719 38.691406 83 38.835938 83.484375 C 39.613281 86.113281 41.097656 88.425781 42.136719 90.9375 C 42.46875 91.742188 42.527344 92.425781 41.980469 93.199219 C 41.140625 91.351562 40.664062 89.417969 39.964844 87.566406 C 38.746094 84.335938 37.097656 81.3125 35.746094 78.148438 C 34.808594 75.953125 34.003906 73.703125 32.960938 71.546875 C 31.304688 68.125 29.828125 64.628906 28.734375 60.96875 Z M 111.507812 78.257812 C 109.753906 78.109375 108.171875 78.125 106.582031 78.222656 C 101.046875 78.554688 95.746094 79.765625 90.625 81.910156 C 87.527344 83.207031 84.421875 84.46875 81.542969 86.210938 C 81.375 86.417969 81.152344 86.539062 80.890625 86.59375 C 80.816406 86.28125 81.042969 86.242188 81.242188 86.179688 C 82.195312 85.257812 83.25 84.472656 84.4375 83.875 C 87.789062 82.191406 91.109375 80.433594 94.519531 78.878906 C 97.570312 77.484375 100.867188 76.746094 104.058594 75.71875 C 105.308594 75.316406 106.570312 74.941406 107.808594 74.507812 C 108.257812 74.351562 108.4375 74.425781 108.734375 74.828125 C 109.5625 75.96875 110.5 77.027344 111.507812 78.257812 Z M 110.050781 71.171875 C 108.976562 69.511719 108.109375 67.734375 107.15625 66.007812 C 105.769531 63.5 104.722656 60.832031 103.277344 58.347656 C 99.503906 51.867188 95.746094 45.363281 93.15625 38.28125 C 92.707031 37.046875 92.324219 35.78125 91.628906 34.648438 C 91.394531 34.261719 91.1875 34.058594 90.625 34.140625 C 88.734375 34.414062 86.8125 34.476562 84.929688 34.785156 C 81.785156 35.296875 78.601562 35.640625 75.625 36.9375 C 73.121094 38.023438 70.90625 39.550781 68.675781 41.074219 C 67.648438 41.78125 66.507812 42.316406 65.609375 43.222656 C 64.058594 44.792969 62.628906 46.476562 60.964844 47.945312 C 59.644531 49.109375 59.625 49.734375 60.386719 51.28125 C 60.542969 51.605469 60.722656 51.921875 60.917969 52.226562 C 62.582031 54.84375 64 57.609375 65.007812 60.523438 C 66.875 65.941406 69.792969 70.839844 72.363281 75.902344 C 74.308594 79.734375 76.558594 83.410156 77.878906 87.589844 C 78.03125 87.503906 78.15625 87.457031 78.25 87.378906 C 79.523438 86.332031 80.765625 85.253906 82.066406 84.238281 C 84.082031 82.667969 86.484375 81.785156 88.734375 80.636719 C 91.21875 79.363281 93.570312 77.78125 96.253906 76.945312 C 98.953125 76.105469 101.609375 75.128906 104.351562 74.417969 C 106.097656 73.964844 107.796875 73.324219 109.503906 72.730469 C 110.703125 72.316406 110.726562 72.214844 110.050781 71.171875 Z M 64.738281 50.617188 C 64.550781 50.355469 64.8125 50.125 65.007812 49.953125 C 68.03125 47.3125 70.804688 44.300781 74.550781 42.671875 C 78.003906 41.164062 81.601562 39.992188 85.28125 39.128906 C 85.8125 39.007812 86.398438 39.113281 86.960938 39.113281 C 86.960938 39.089844 86.960938 39.0625 86.960938 39.039062 C 87.386719 39.039062 87.820312 39.011719 88.246094 39.046875 C 88.574219 39.070312 89.0625 38.960938 89.0625 39.511719 C 89.066406 40.042969 88.570312 39.960938 88.25 40.015625 C 87.863281 40.078125 87.457031 40.074219 87.0625 40.058594 C 85.457031 39.996094 83.9375 40.382812 82.433594 40.902344 C 80.507812 41.566406 78.578125 42.207031 76.648438 42.855469 C 73.949219 43.761719 71.636719 45.304688 69.554688 47.207031 C 68.261719 48.390625 66.875 49.445312 65.492188 50.507812 C 65.269531 50.675781 64.988281 50.972656 64.738281 50.617188 Z M 67.414062 56.074219 C 67.199219 56.160156 66.855469 56.242188 66.714844 55.9375 C 66.582031 55.644531 66.886719 55.570312 67.070312 55.441406 C 67.878906 54.867188 68.5625 54.160156 69.273438 53.472656 C 72.488281 50.363281 76.183594 48.019531 80.453125 46.628906 C 81.546875 46.273438 82.640625 45.921875 83.679688 45.421875 C 85.855469 44.375 88.496094 43.792969 91.320312 43.703125 C 91.550781 43.714844 91.925781 43.714844 92.007812 44.125 C 92.105469 44.621094 91.683594 44.746094 91.335938 44.796875 C 90.363281 44.941406 89.382812 45.0625 88.402344 45.140625 C 85.9375 45.335938 83.925781 46.824219 81.628906 47.492188 C 76.886719 48.867188 72.777344 51.320312 69.277344 54.796875 C 68.738281 55.332031 68.121094 55.789062 67.414062 56.074219 Z M 71.042969 61.234375 C 70.816406 61.578125 70.496094 62.074219 70.035156 61.746094 C 69.496094 61.359375 69.964844 60.96875 70.214844 60.582031 C 72.910156 56.382812 77.128906 54.101562 81.328125 51.824219 C 84.5625 50.066406 88.015625 48.808594 91.582031 47.90625 C 92.4375 47.6875 93.332031 47.628906 94.09375 47.382812 C 94.445312 47.40625 94.738281 47.367188 94.800781 47.730469 C 94.855469 48.03125 94.71875 48.246094 94.457031 48.371094 C 94.25 48.46875 94.027344 48.589844 93.808594 48.601562 C 91.875 48.710938 90.140625 49.570312 88.300781 50.03125 C 85.925781 50.621094 83.808594 51.878906 81.621094 52.921875 C 77.484375 54.894531 73.660156 57.308594 71.042969 61.234375 Z M 72.507812 66.453125 C 72.140625 66.148438 72.753906 65.675781 72.984375 65.304688 C 74.636719 62.660156 77.152344 60.910156 79.621094 59.179688 C 81.691406 57.730469 83.945312 56.53125 86.1875 55.351562 C 89.03125 53.859375 92.222656 53.613281 95.324219 53.101562 C 95.726562 53.023438 96.214844 52.90625 96.292969 53.449219 C 96.371094 54.003906 95.878906 54.089844 95.433594 54.164062 C 92.519531 54.660156 89.476562 54.859375 86.875 56.347656 C 83.574219 58.242188 80.09375 59.878906 77.238281 62.5 C 76.097656 63.546875 74.847656 64.46875 73.925781 65.738281 C 73.886719 65.789062 73.84375 65.839844 73.796875 65.886719 C 73.421875 66.246094 72.894531 66.773438 72.507812 66.453125 Z M 74.042969 71.746094 C 73.824219 71.710938 73.667969 71.605469 73.609375 71.398438 C 73.554688 71.199219 73.601562 71.046875 73.816406 70.917969 C 78.128906 68.316406 82.027344 65.085938 86.425781 62.609375 C 88.53125 61.425781 90.777344 60.578125 93.007812 59.707031 C 94.421875 59.152344 95.996094 59.351562 97.484375 59.085938 C 98 58.992188 98.523438 58.929688 99.015625 58.855469 C 99.390625 58.886719 99.859375 58.773438 99.90625 59.277344 C 99.945312 59.722656 99.554688 59.851562 99.171875 59.910156 C 98.070312 60.082031 96.972656 60.34375 95.863281 60.40625 C 92.726562 60.585938 90.042969 62.050781 87.410156 63.476562 C 84.289062 65.167969 81.257812 67.042969 78.460938 69.269531 C 77.414062 70.105469 76.203125 70.742188 75.066406 71.46875 C 74.753906 71.664062 74.425781 71.804688 74.042969 71.746094 Z M 77.070312 76.082031 C 76.851562 76.230469 76.640625 76.390625 76.429688 76.546875 C 76.257812 76.671875 76.085938 76.753906 75.90625 76.570312 C 75.738281 76.390625 75.773438 76.21875 75.925781 76.050781 C 76.148438 75.808594 76.359375 75.554688 76.59375 75.324219 C 80.128906 71.859375 84.238281 69.34375 88.925781 67.726562 C 91.746094 66.753906 94.402344 65.34375 97.28125 64.5 C 98.421875 64.164062 99.535156 63.777344 100.742188 63.792969 C 101.105469 63.8125 101.464844 63.824219 101.828125 63.84375 C 102.136719 63.863281 102.332031 64.03125 102.347656 64.332031 C 102.363281 64.648438 102.164062 64.792969 101.859375 64.828125 C 94.886719 65.613281 88.867188 69.011719 82.667969 71.882812 C 80.535156 72.875 79 74.765625 77.070312 76.082031 Z M 105.289062 67.792969 C 105.191406 68.28125 104.734375 68.289062 104.425781 68.300781 C 102.191406 68.386719 100.140625 69.246094 98.011719 69.785156 C 97.28125 69.972656 96.53125 70.152344 95.890625 70.5625 C 92.097656 72.984375 87.824219 74.410156 83.828125 76.410156 C 82.105469 77.273438 80.421875 78.136719 79.121094 79.597656 C 79.011719 79.71875 78.882812 79.824219 78.746094 79.917969 C 78.515625 80.074219 78.238281 80.179688 78.039062 79.929688 C 77.859375 79.707031 77.921875 79.472656 78.140625 79.238281 C 79.28125 77.996094 80.46875 76.835938 82.011719 76.0625 C 85.097656 74.515625 88.285156 73.1875 91.4375 71.78125 C 91.917969 71.566406 92.429688 71.398438 92.859375 71.105469 C 96.207031 68.796875 100.082031 68.085938 103.972656 67.425781 C 104.292969 67.371094 104.628906 67.390625 104.957031 67.398438 C 105.191406 67.40625 105.3125 67.550781 105.289062 67.792969 Z M 105.289062 67.792969 " fill-opacity="1" fill-rule="nonzero"/><g fill="#1e3f48" fill-opacity="1"><g transform="translate(132.286812, 64.124334)"><g><path d="M 21.75 -14.671875 L 20.609375 -14.671875 C 20.546875 -15.546875 20.410156 -16.269531 20.203125 -16.84375 C 20.003906 -17.425781 19.71875 -17.890625 19.34375 -18.234375 C 18.96875 -18.585938 18.515625 -18.828125 17.984375 -18.953125 C 17.453125 -19.085938 16.832031 -19.15625 16.125 -19.15625 C 15.425781 -19.15625 14.867188 -19.140625 14.453125 -19.109375 C 14.035156 -19.085938 13.710938 -19.046875 13.484375 -18.984375 C 13.265625 -18.921875 13.117188 -18.835938 13.046875 -18.734375 C 12.972656 -18.628906 12.9375 -18.492188 12.9375 -18.328125 L 12.9375 -4.34375 C 12.9375 -3.78125 12.976562 -3.289062 13.0625 -2.875 C 13.144531 -2.46875 13.3125 -2.132812 13.5625 -1.875 C 13.8125 -1.625 14.175781 -1.429688 14.65625 -1.296875 C 15.132812 -1.160156 15.765625 -1.082031 16.546875 -1.0625 L 16.546875 0 L 5.359375 0 L 5.359375 -1.0625 C 6.160156 -1.082031 6.800781 -1.160156 7.28125 -1.296875 C 7.757812 -1.429688 8.128906 -1.625 8.390625 -1.875 C 8.648438 -2.132812 8.816406 -2.46875 8.890625 -2.875 C 8.972656 -3.289062 9.015625 -3.78125 9.015625 -4.34375 L 9.015625 -18.328125 C 9.015625 -18.492188 8.984375 -18.628906 8.921875 -18.734375 C 8.859375 -18.835938 8.726562 -18.921875 8.53125 -18.984375 C 8.34375 -19.046875 8.066406 -19.085938 7.703125 -19.109375 C 7.335938 -19.140625 6.859375 -19.15625 6.265625 -19.15625 C 5.628906 -19.15625 5.015625 -19.125 4.421875 -19.0625 C 3.835938 -19 3.320312 -18.820312 2.875 -18.53125 C 2.4375 -18.238281 2.078125 -17.796875 1.796875 -17.203125 C 1.523438 -16.609375 1.378906 -15.765625 1.359375 -14.671875 L 0.3125 -14.671875 L 0.59375 -20.546875 L 21.484375 -20.546875 Z M 21.75 -14.671875 "/></g></g></g><g fill="#1e3f48" fill-opacity="1"><g transform="translate(157.55379, 64.124334)"><g><path d="M 21.484375 -4.296875 C 21.484375 -3.617188 21.515625 -3.070312 21.578125 -2.65625 C 21.640625 -2.238281 21.769531 -1.914062 21.96875 -1.6875 C 22.175781 -1.46875 22.460938 -1.3125 22.828125 -1.21875 C 23.191406 -1.132812 23.675781 -1.082031 24.28125 -1.0625 L 24.28125 0 L 14.484375 0 L 14.484375 -1.0625 C 15.148438 -1.082031 15.679688 -1.132812 16.078125 -1.21875 C 16.472656 -1.3125 16.78125 -1.460938 17 -1.671875 C 17.226562 -1.890625 17.378906 -2.191406 17.453125 -2.578125 C 17.523438 -2.972656 17.5625 -3.484375 17.5625 -4.109375 L 17.5625 -9.6875 L 7.65625 -9.6875 L 7.65625 -4.296875 C 7.65625 -3.617188 7.691406 -3.070312 7.765625 -2.65625 C 7.835938 -2.238281 7.976562 -1.914062 8.1875 -1.6875 C 8.40625 -1.46875 8.710938 -1.3125 9.109375 -1.21875 C 9.515625 -1.132812 10.046875 -1.082031 10.703125 -1.0625 L 10.703125 0 L 0.9375 0 L 0.9375 -1.0625 C 1.539062 -1.082031 2.023438 -1.132812 2.390625 -1.21875 C 2.753906 -1.3125 3.03125 -1.460938 3.21875 -1.671875 C 3.414062 -1.890625 3.550781 -2.191406 3.625 -2.578125 C 3.695312 -2.972656 3.734375 -3.484375 3.734375 -4.109375 L 3.734375 -16.4375 C 3.734375 -17.0625 3.703125 -17.5625 3.640625 -17.9375 C 3.578125 -18.320312 3.457031 -18.625 3.28125 -18.84375 C 3.101562 -19.070312 2.847656 -19.222656 2.515625 -19.296875 C 2.191406 -19.378906 1.765625 -19.441406 1.234375 -19.484375 L 1.234375 -20.546875 L 10.4375 -20.546875 L 10.4375 -19.484375 C 9.832031 -19.460938 9.347656 -19.40625 8.984375 -19.3125 C 8.617188 -19.226562 8.335938 -19.070312 8.140625 -18.84375 C 7.941406 -18.613281 7.8125 -18.289062 7.75 -17.875 C 7.6875 -17.46875 7.65625 -16.925781 7.65625 -16.25 L 7.65625 -11.34375 L 17.5625 -11.34375 L 17.5625 -16.4375 C 17.5625 -17.0625 17.523438 -17.5625 17.453125 -17.9375 C 17.378906 -18.320312 17.242188 -18.625 17.046875 -18.84375 C 16.859375 -19.070312 16.582031 -19.222656 16.21875 -19.296875 C 15.851562 -19.378906 15.367188 -19.441406 14.765625 -19.484375 L 14.765625 -20.546875 L 23.984375 -20.546875 L 23.984375 -19.484375 C 23.453125 -19.460938 23.019531 -19.40625 22.6875 -19.3125 C 22.363281 -19.226562 22.113281 -19.070312 21.9375 -18.84375 C 21.757812 -18.613281 21.640625 -18.289062 21.578125 -17.875 C 21.515625 -17.46875 21.484375 -16.925781 21.484375 -16.25 Z M 21.484375 -4.296875 "/></g></g></g><g fill="#1e3f48" fill-opacity="1"><g transform="translate(185.968998, 64.124334)"><g><path d="M 7.65625 -11.375 C 8.800781 -11.375 9.71875 -11.40625 10.40625 -11.46875 C 11.101562 -11.539062 11.640625 -11.6875 12.015625 -11.90625 C 12.398438 -12.132812 12.671875 -12.460938 12.828125 -12.890625 C 12.992188 -13.316406 13.117188 -13.894531 13.203125 -14.625 L 14.203125 -14.625 L 14.203125 -6.8125 L 13.203125 -6.8125 C 13.097656 -7.519531 12.957031 -8.085938 12.78125 -8.515625 C 12.601562 -8.941406 12.316406 -9.265625 11.921875 -9.484375 C 11.535156 -9.710938 11.007812 -9.851562 10.34375 -9.90625 C 9.675781 -9.96875 8.78125 -10 7.65625 -10 L 7.65625 -4.515625 C 7.65625 -3.941406 7.726562 -3.457031 7.875 -3.0625 C 8.03125 -2.675781 8.285156 -2.363281 8.640625 -2.125 C 9.003906 -1.882812 9.476562 -1.710938 10.0625 -1.609375 C 10.644531 -1.515625 11.363281 -1.46875 12.21875 -1.46875 C 13.238281 -1.46875 14.097656 -1.535156 14.796875 -1.671875 C 15.503906 -1.816406 16.085938 -2.066406 16.546875 -2.421875 C 17.003906 -2.785156 17.375 -3.265625 17.65625 -3.859375 C 17.945312 -4.453125 18.191406 -5.203125 18.390625 -6.109375 L 19.453125 -6.109375 L 19.03125 0 L 0.9375 0 L 0.9375 -1.0625 C 1.519531 -1.082031 2 -1.132812 2.375 -1.21875 C 2.75 -1.3125 3.03125 -1.460938 3.21875 -1.671875 C 3.414062 -1.890625 3.550781 -2.191406 3.625 -2.578125 C 3.695312 -2.972656 3.734375 -3.484375 3.734375 -4.109375 L 3.734375 -16.4375 C 3.734375 -17.0625 3.703125 -17.5625 3.640625 -17.9375 C 3.578125 -18.320312 3.457031 -18.625 3.28125 -18.84375 C 3.101562 -19.070312 2.847656 -19.222656 2.515625 -19.296875 C 2.191406 -19.378906 1.765625 -19.441406 1.234375 -19.484375 L 1.234375 -20.546875 L 18.09375 -20.546875 L 18.28125 -15.3125 L 17.140625 -15.3125 C 17.023438 -16.0625 16.851562 -16.679688 16.625 -17.171875 C 16.394531 -17.660156 16.070312 -18.050781 15.65625 -18.34375 C 15.25 -18.632812 14.722656 -18.835938 14.078125 -18.953125 C 13.429688 -19.078125 12.632812 -19.140625 11.6875 -19.140625 L 8.671875 -19.140625 C 8.210938 -19.140625 7.925781 -19.078125 7.8125 -18.953125 C 7.707031 -18.835938 7.65625 -18.566406 7.65625 -18.140625 Z M 7.65625 -11.375 "/></g></g></g><g fill="#1e3f48" fill-opacity="1"><g transform="translate(132.286812, 92.82208)"><g><path d="M 0.875 0 L 0.875 -1.0625 C 1.476562 -1.082031 1.960938 -1.132812 2.328125 -1.21875 C 2.691406 -1.3125 2.976562 -1.460938 3.1875 -1.671875 C 3.394531 -1.890625 3.53125 -2.191406 3.59375 -2.578125 C 3.664062 -2.972656 3.703125 -3.484375 3.703125 -4.109375 L 3.703125 -16.4375 C 3.703125 -17.0625 3.675781 -17.5625 3.625 -17.9375 C 3.570312 -18.320312 3.460938 -18.625 3.296875 -18.84375 C 3.128906 -19.070312 2.894531 -19.222656 2.59375 -19.296875 C 2.300781 -19.378906 1.914062 -19.441406 1.4375 -19.484375 L 1.4375 -20.546875 L 10 -20.546875 C 12.6875 -20.546875 14.753906 -20.113281 16.203125 -19.25 C 17.660156 -18.382812 18.390625 -17.15625 18.390625 -15.5625 C 18.390625 -13.445312 16.867188 -11.953125 13.828125 -11.078125 L 13.828125 -10.96875 C 14.804688 -10.96875 15.691406 -10.828125 16.484375 -10.546875 C 17.273438 -10.273438 17.945312 -9.890625 18.5 -9.390625 C 19.050781 -8.890625 19.476562 -8.300781 19.78125 -7.625 C 20.082031 -6.957031 20.234375 -6.222656 20.234375 -5.421875 C 20.234375 -4.515625 20.015625 -3.722656 19.578125 -3.046875 C 19.140625 -2.367188 18.507812 -1.796875 17.6875 -1.328125 C 16.101562 -0.441406 13.925781 0 11.15625 0 Z M 11.34375 -1.625 C 14.207031 -1.625 15.640625 -2.914062 15.640625 -5.5 C 15.640625 -7.082031 15.125 -8.238281 14.09375 -8.96875 C 13.5625 -9.34375 12.867188 -9.609375 12.015625 -9.765625 C 11.171875 -9.921875 10.132812 -10 8.90625 -10 L 7.625 -10 L 7.625 -4.671875 C 7.625 -3.566406 7.910156 -2.78125 8.484375 -2.3125 C 9.054688 -1.851562 10.007812 -1.625 11.34375 -1.625 Z M 9.203125 -11.609375 C 10.003906 -11.609375 10.695312 -11.679688 11.28125 -11.828125 C 11.875 -11.984375 12.375 -12.203125 12.78125 -12.484375 C 13.632812 -13.078125 14.0625 -13.992188 14.0625 -15.234375 C 14.0625 -16.535156 13.738281 -17.472656 13.09375 -18.046875 C 12.457031 -18.628906 11.425781 -18.921875 10 -18.921875 L 8.109375 -18.921875 C 7.785156 -18.921875 7.625 -18.769531 7.625 -18.46875 L 7.625 -11.609375 Z M 9.203125 -11.609375 "/></g></g></g><g fill="#1e3f48" fill-opacity="1"><g transform="translate(156.753399, 92.82208)"><g><path d="M 12.59375 -20.8125 C 14.195312 -20.8125 15.691406 -20.535156 17.078125 -19.984375 C 18.460938 -19.429688 19.664062 -18.675781 20.6875 -17.71875 C 21.71875 -16.757812 22.523438 -15.628906 23.109375 -14.328125 C 23.691406 -13.035156 23.984375 -11.628906 23.984375 -10.109375 C 23.984375 -8.671875 23.6875 -7.316406 23.09375 -6.046875 C 22.5 -4.785156 21.691406 -3.6875 20.671875 -2.75 C 19.648438 -1.820312 18.441406 -1.085938 17.046875 -0.546875 C 15.660156 -0.00390625 14.175781 0.265625 12.59375 0.265625 C 11.007812 0.265625 9.523438 -0.00390625 8.140625 -0.546875 C 6.753906 -1.085938 5.546875 -1.820312 4.515625 -2.75 C 3.484375 -3.6875 2.671875 -4.785156 2.078125 -6.046875 C 1.492188 -7.316406 1.203125 -8.671875 1.203125 -10.109375 C 1.203125 -11.628906 1.492188 -13.035156 2.078125 -14.328125 C 2.671875 -15.628906 3.476562 -16.757812 4.5 -17.71875 C 5.519531 -18.675781 6.722656 -19.429688 8.109375 -19.984375 C 9.492188 -20.535156 10.988281 -20.8125 12.59375 -20.8125 Z M 12.59375 -1.46875 C 13.625 -1.46875 14.554688 -1.664062 15.390625 -2.0625 C 16.234375 -2.46875 16.945312 -3.039062 17.53125 -3.78125 C 18.125 -4.519531 18.570312 -5.414062 18.875 -6.46875 C 19.1875 -7.53125 19.34375 -8.71875 19.34375 -10.03125 C 19.34375 -11.414062 19.1875 -12.664062 18.875 -13.78125 C 18.570312 -14.894531 18.125 -15.847656 17.53125 -16.640625 C 16.945312 -17.429688 16.234375 -18.035156 15.390625 -18.453125 C 14.554688 -18.867188 13.625 -19.078125 12.59375 -19.078125 C 11.539062 -19.078125 10.601562 -18.867188 9.78125 -18.453125 C 8.957031 -18.035156 8.25 -17.429688 7.65625 -16.640625 C 7.070312 -15.847656 6.625 -14.894531 6.3125 -13.78125 C 6 -12.664062 5.84375 -11.414062 5.84375 -10.03125 C 5.84375 -8.71875 6 -7.53125 6.3125 -6.46875 C 6.625 -5.414062 7.070312 -4.519531 7.65625 -3.78125 C 8.25 -3.039062 8.957031 -2.46875 9.78125 -2.0625 C 10.601562 -1.664062 11.539062 -1.46875 12.59375 -1.46875 Z M 12.59375 -1.46875 "/></g></g></g><g fill="#1e3f48" fill-opacity="1"><g transform="translate(185.115248, 92.82208)"><g><path d="M 12.59375 -20.8125 C 14.195312 -20.8125 15.691406 -20.535156 17.078125 -19.984375 C 18.460938 -19.429688 19.664062 -18.675781 20.6875 -17.71875 C 21.71875 -16.757812 22.523438 -15.628906 23.109375 -14.328125 C 23.691406 -13.035156 23.984375 -11.628906 23.984375 -10.109375 C 23.984375 -8.671875 23.6875 -7.316406 23.09375 -6.046875 C 22.5 -4.785156 21.691406 -3.6875 20.671875 -2.75 C 19.648438 -1.820312 18.441406 -1.085938 17.046875 -0.546875 C 15.660156 -0.00390625 14.175781 0.265625 12.59375 0.265625 C 11.007812 0.265625 9.523438 -0.00390625 8.140625 -0.546875 C 6.753906 -1.085938 5.546875 -1.820312 4.515625 -2.75 C 3.484375 -3.6875 2.671875 -4.785156 2.078125 -6.046875 C 1.492188 -7.316406 1.203125 -8.671875 1.203125 -10.109375 C 1.203125 -11.628906 1.492188 -13.035156 2.078125 -14.328125 C 2.671875 -15.628906 3.476562 -16.757812 4.5 -17.71875 C 5.519531 -18.675781 6.722656 -19.429688 8.109375 -19.984375 C 9.492188 -20.535156 10.988281 -20.8125 12.59375 -20.8125 Z M 12.59375 -1.46875 C 13.625 -1.46875 14.554688 -1.664062 15.390625 -2.0625 C 16.234375 -2.46875 16.945312 -3.039062 17.53125 -3.78125 C 18.125 -4.519531 18.570312 -5.414062 18.875 -6.46875 C 19.1875 -7.53125 19.34375 -8.71875 19.34375 -10.03125 C 19.34375 -11.414062 19.1875 -12.664062 18.875 -13.78125 C 18.570312 -14.894531 18.125 -15.847656 17.53125 -16.640625 C 16.945312 -17.429688 16.234375 -18.035156 15.390625 -18.453125 C 14.554688 -18.867188 13.625 -19.078125 12.59375 -19.078125 C 11.539062 -19.078125 10.601562 -18.867188 9.78125 -18.453125 C 8.957031 -18.035156 8.25 -17.429688 7.65625 -16.640625 C 7.070312 -15.847656 6.625 -14.894531 6.3125 -13.78125 C 6 -12.664062 5.84375 -11.414062 5.84375 -10.03125 C 5.84375 -8.71875 6 -7.53125 6.3125 -6.46875 C 6.625 -5.414062 7.070312 -4.519531 7.65625 -3.78125 C 8.25 -3.039062 8.957031 -2.46875 9.78125 -2.0625 C 10.601562 -1.664062 11.539062 -1.46875 12.59375 -1.46875 Z M 12.59375 -1.46875 "/></g></g></g><g fill="#1e3f48" fill-opacity="1"><g transform="translate(213.477098, 92.82208)"><g><path d="M 7.65625 -4.296875 C 7.65625 -3.617188 7.6875 -3.078125 7.75 -2.671875 C 7.8125 -2.265625 7.929688 -1.941406 8.109375 -1.703125 C 8.285156 -1.472656 8.539062 -1.3125 8.875 -1.21875 C 9.207031 -1.132812 9.644531 -1.082031 10.1875 -1.0625 L 10.1875 0 L 0.9375 0 L 0.9375 -1.0625 C 1.519531 -1.082031 2 -1.132812 2.375 -1.21875 C 2.75 -1.3125 3.03125 -1.460938 3.21875 -1.671875 C 3.414062 -1.890625 3.550781 -2.191406 3.625 -2.578125 C 3.695312 -2.972656 3.734375 -3.484375 3.734375 -4.109375 L 3.734375 -16.4375 C 3.734375 -17.039062 3.703125 -17.535156 3.640625 -17.921875 C 3.578125 -18.316406 3.457031 -18.617188 3.28125 -18.828125 C 3.101562 -19.046875 2.847656 -19.195312 2.515625 -19.28125 C 2.191406 -19.375 1.765625 -19.441406 1.234375 -19.484375 L 1.234375 -20.546875 L 10.4375 -20.546875 L 10.4375 -19.484375 C 9.832031 -19.460938 9.347656 -19.40625 8.984375 -19.3125 C 8.617188 -19.226562 8.335938 -19.070312 8.140625 -18.84375 C 7.941406 -18.613281 7.8125 -18.289062 7.75 -17.875 C 7.6875 -17.46875 7.65625 -16.925781 7.65625 -16.25 L 7.65625 -10.328125 L 14.578125 -17.75 C 14.984375 -18.195312 15.1875 -18.570312 15.1875 -18.875 C 15.1875 -19.0625 15.054688 -19.207031 14.796875 -19.3125 C 14.535156 -19.425781 14.0625 -19.484375 13.375 -19.484375 L 13.375 -20.546875 L 20.65625 -20.546875 L 20.65625 -19.515625 C 20.257812 -19.492188 19.914062 -19.457031 19.625 -19.40625 C 19.332031 -19.351562 19.039062 -19.234375 18.75 -19.046875 C 18.457031 -18.867188 18.128906 -18.613281 17.765625 -18.28125 C 17.398438 -17.957031 16.945312 -17.519531 16.40625 -16.96875 L 11.65625 -12.015625 L 19.515625 -2.453125 C 19.878906 -1.992188 20.289062 -1.65625 20.75 -1.4375 C 21.207031 -1.226562 21.789062 -1.101562 22.5 -1.0625 L 22.5 0 L 12.625 0 L 12.625 -1.0625 C 13.351562 -1.082031 13.875 -1.144531 14.1875 -1.25 C 14.507812 -1.363281 14.671875 -1.539062 14.671875 -1.78125 C 14.671875 -1.875 14.65625 -1.957031 14.625 -2.03125 C 14.601562 -2.113281 14.5625 -2.210938 14.5 -2.328125 C 14.4375 -2.453125 14.34375 -2.597656 14.21875 -2.765625 C 14.09375 -2.929688 13.925781 -3.140625 13.71875 -3.390625 L 9 -9.203125 L 7.65625 -7.8125 Z M 7.65625 -4.296875 "/></g></g></g><g fill="#1e3f48" fill-opacity="1"><g transform="translate(238.610685, 92.82208)"><g><path d="M 21.75 -14.671875 L 20.609375 -14.671875 C 20.546875 -15.546875 20.410156 -16.269531 20.203125 -16.84375 C 20.003906 -17.425781 19.71875 -17.890625 19.34375 -18.234375 C 18.96875 -18.585938 18.515625 -18.828125 17.984375 -18.953125 C 17.453125 -19.085938 16.832031 -19.15625 16.125 -19.15625 C 15.425781 -19.15625 14.867188 -19.140625 14.453125 -19.109375 C 14.035156 -19.085938 13.710938 -19.046875 13.484375 -18.984375 C 13.265625 -18.921875 13.117188 -18.835938 13.046875 -18.734375 C 12.972656 -18.628906 12.9375 -18.492188 12.9375 -18.328125 L 12.9375 -4.34375 C 12.9375 -3.78125 12.976562 -3.289062 13.0625 -2.875 C 13.144531 -2.46875 13.3125 -2.132812 13.5625 -1.875 C 13.8125 -1.625 14.175781 -1.429688 14.65625 -1.296875 C 15.132812 -1.160156 15.765625 -1.082031 16.546875 -1.0625 L 16.546875 0 L 5.359375 0 L 5.359375 -1.0625 C 6.160156 -1.082031 6.800781 -1.160156 7.28125 -1.296875 C 7.757812 -1.429688 8.128906 -1.625 8.390625 -1.875 C 8.648438 -2.132812 8.816406 -2.46875 8.890625 -2.875 C 8.972656 -3.289062 9.015625 -3.78125 9.015625 -4.34375 L 9.015625 -18.328125 C 9.015625 -18.492188 8.984375 -18.628906 8.921875 -18.734375 C 8.859375 -18.835938 8.726562 -18.921875 8.53125 -18.984375 C 8.34375 -19.046875 8.066406 -19.085938 7.703125 -19.109375 C 7.335938 -19.140625 6.859375 -19.15625 6.265625 -19.15625 C 5.628906 -19.15625 5.015625 -19.125 4.421875 -19.0625 C 3.835938 -19 3.320312 -18.820312 2.875 -18.53125 C 2.4375 -18.238281 2.078125 -17.796875 1.796875 -17.203125 C 1.523438 -16.609375 1.378906 -15.765625 1.359375 -14.671875 L 0.3125 -14.671875 L 0.59375 -20.546875 L 21.484375 -20.546875 Z M 21.75 -14.671875 "/></g></g></g><g fill="#1e3f48" fill-opacity="1"><g transform="translate(263.877657, 92.82208)"><g><path d="M 12.59375 -20.8125 C 14.195312 -20.8125 15.691406 -20.535156 17.078125 -19.984375 C 18.460938 -19.429688 19.664062 -18.675781 20.6875 -17.71875 C 21.71875 -16.757812 22.523438 -15.628906 23.109375 -14.328125 C 23.691406 -13.035156 23.984375 -11.628906 23.984375 -10.109375 C 23.984375 -8.671875 23.6875 -7.316406 23.09375 -6.046875 C 22.5 -4.785156 21.691406 -3.6875 20.671875 -2.75 C 19.648438 -1.820312 18.441406 -1.085938 17.046875 -0.546875 C 15.660156 -0.00390625 14.175781 0.265625 12.59375 0.265625 C 11.007812 0.265625 9.523438 -0.00390625 8.140625 -0.546875 C 6.753906 -1.085938 5.546875 -1.820312 4.515625 -2.75 C 3.484375 -3.6875 2.671875 -4.785156 2.078125 -6.046875 C 1.492188 -7.316406 1.203125 -8.671875 1.203125 -10.109375 C 1.203125 -11.628906 1.492188 -13.035156 2.078125 -14.328125 C 2.671875 -15.628906 3.476562 -16.757812 4.5 -17.71875 C 5.519531 -18.675781 6.722656 -19.429688 8.109375 -19.984375 C 9.492188 -20.535156 10.988281 -20.8125 12.59375 -20.8125 Z M 12.59375 -1.46875 C 13.625 -1.46875 14.554688 -1.664062 15.390625 -2.0625 C 16.234375 -2.46875 16.945312 -3.039062 17.53125 -3.78125 C 18.125 -4.519531 18.570312 -5.414062 18.875 -6.46875 C 19.1875 -7.53125 19.34375 -8.71875 19.34375 -10.03125 C 19.34375 -11.414062 19.1875 -12.664062 18.875 -13.78125 C 18.570312 -14.894531 18.125 -15.847656 17.53125 -16.640625 C 16.945312 -17.429688 16.234375 -18.035156 15.390625 -18.453125 C 14.554688 -18.867188 13.625 -19.078125 12.59375 -19.078125 C 11.539062 -19.078125 10.601562 -18.867188 9.78125 -18.453125 C 8.957031 -18.035156 8.25 -17.429688 7.65625 -16.640625 C 7.070312 -15.847656 6.625 -14.894531 6.3125 -13.78125 C 6 -12.664062 5.84375 -11.414062 5.84375 -10.03125 C 5.84375 -8.71875 6 -7.53125 6.3125 -6.46875 C 6.625 -5.414062 7.070312 -4.519531 7.65625 -3.78125 C 8.25 -3.039062 8.957031 -2.46875 9.78125 -2.0625 C 10.601562 -1.664062 11.539062 -1.46875 12.59375 -1.46875 Z M 12.59375 -1.46875 "/></g></g></g><g fill="#1e3f48" fill-opacity="1"><g transform="translate(292.239513, 92.82208)"><g><path d="M 23.671875 -5.171875 L 27.28125 -15.484375 C 27.707031 -16.671875 27.921875 -17.554688 27.921875 -18.140625 C 27.921875 -18.691406 27.726562 -19.050781 27.34375 -19.21875 C 26.957031 -19.394531 26.363281 -19.484375 25.5625 -19.484375 L 25.5625 -20.546875 L 33.140625 -20.546875 L 33.140625 -19.484375 C 32.460938 -19.484375 31.851562 -19.316406 31.3125 -18.984375 C 30.769531 -18.660156 30.359375 -18.101562 30.078125 -17.3125 L 23.640625 0.265625 L 21.265625 0.265625 L 16.625 -13.828125 L 11.34375 0.265625 L 9.125 0.265625 L 3.46875 -15.3125 C 3.132812 -16.21875 2.820312 -16.945312 2.53125 -17.5 C 2.25 -18.050781 1.945312 -18.46875 1.625 -18.75 C 1.300781 -19.039062 0.953125 -19.226562 0.578125 -19.3125 C 0.210938 -19.40625 -0.226562 -19.453125 -0.75 -19.453125 L -0.75 -20.546875 L 9.34375 -20.546875 L 9.34375 -19.453125 C 8.4375 -19.453125 7.8125 -19.367188 7.46875 -19.203125 C 7.132812 -19.035156 6.96875 -18.753906 6.96875 -18.359375 C 6.96875 -18.210938 6.972656 -18.070312 6.984375 -17.9375 C 7.003906 -17.8125 7.039062 -17.660156 7.09375 -17.484375 C 7.144531 -17.316406 7.210938 -17.109375 7.296875 -16.859375 C 7.378906 -16.617188 7.488281 -16.3125 7.625 -15.9375 L 11.375 -5.171875 L 15.6875 -16.96875 C 15.507812 -17.445312 15.332031 -17.835938 15.15625 -18.140625 C 14.976562 -18.441406 14.769531 -18.679688 14.53125 -18.859375 C 14.289062 -19.046875 14.019531 -19.175781 13.71875 -19.25 C 13.414062 -19.332031 13.050781 -19.398438 12.625 -19.453125 L 12.625 -20.546875 L 22.046875 -20.546875 L 22.046875 -19.453125 C 21.296875 -19.453125 20.742188 -19.359375 20.390625 -19.171875 C 20.035156 -18.984375 19.859375 -18.625 19.859375 -18.09375 C 19.859375 -17.820312 19.894531 -17.507812 19.96875 -17.15625 C 20.050781 -16.800781 20.164062 -16.394531 20.3125 -15.9375 Z M 23.671875 -5.171875 "/></g></g></g><g fill="#1e3f48" fill-opacity="1"><g transform="translate(328.178435, 92.82208)"><g><path d="M 17.875 0.265625 L 6.0625 -16.578125 L 5.953125 -16.578125 L 5.953125 -5.09375 C 5.953125 -4.207031 5.984375 -3.503906 6.046875 -2.984375 C 6.109375 -2.472656 6.238281 -2.070312 6.4375 -1.78125 C 6.644531 -1.5 6.929688 -1.3125 7.296875 -1.21875 C 7.660156 -1.132812 8.140625 -1.082031 8.734375 -1.0625 L 8.734375 0 L 0.796875 0 L 0.796875 -1.0625 C 1.453125 -1.082031 1.976562 -1.140625 2.375 -1.234375 C 2.78125 -1.335938 3.09375 -1.519531 3.3125 -1.78125 C 3.539062 -2.050781 3.691406 -2.429688 3.765625 -2.921875 C 3.835938 -3.410156 3.875 -4.070312 3.875 -4.90625 L 3.875 -15.640625 C 3.875 -16.390625 3.835938 -17.007812 3.765625 -17.5 C 3.691406 -17.988281 3.554688 -18.375 3.359375 -18.65625 C 3.160156 -18.9375 2.878906 -19.132812 2.515625 -19.25 C 2.148438 -19.363281 1.664062 -19.441406 1.0625 -19.484375 L 1.0625 -20.546875 L 8.515625 -20.546875 L 19.265625 -5.125 L 19.375 -5.125 L 19.375 -15.453125 C 19.375 -16.328125 19.34375 -17.023438 19.28125 -17.546875 C 19.21875 -18.066406 19.082031 -18.46875 18.875 -18.75 C 18.675781 -19.039062 18.394531 -19.226562 18.03125 -19.3125 C 17.664062 -19.40625 17.1875 -19.460938 16.59375 -19.484375 L 16.59375 -20.546875 L 24.53125 -20.546875 L 24.53125 -19.484375 C 23.863281 -19.460938 23.332031 -19.398438 22.9375 -19.296875 C 22.539062 -19.203125 22.226562 -19.019531 22 -18.75 C 21.78125 -18.488281 21.632812 -18.109375 21.5625 -17.609375 C 21.488281 -17.109375 21.453125 -16.453125 21.453125 -15.640625 L 21.453125 0.265625 Z M 17.875 0.265625 "/></g></g></g><g fill="#767fa7" fill-opacity="1"><g transform="translate(132.286812, 112.686462)"><g><path d="M 5.640625 -7.859375 L 8.359375 -13.3125 L 11.296875 -13.3125 L 6.953125 -4.96875 L 6.953125 0 L 4.234375 0 L 4.234375 -4.96875 L -0.09375 -13.3125 L 2.921875 -13.3125 Z M 5.640625 -7.859375 "/></g></g></g><g fill="#767fa7" fill-opacity="1"><g transform="translate(144.678413, 112.686462)"><g><path d="M 7.171875 0.25 C 6.003906 0.25 4.921875 -0.0546875 3.921875 -0.671875 C 2.921875 -1.285156 2.117188 -2.117188 1.515625 -3.171875 C 0.921875 -4.234375 0.625 -5.394531 0.625 -6.65625 C 0.625 -7.90625 0.921875 -9.0625 1.515625 -10.125 C 2.117188 -11.1875 2.921875 -12.023438 3.921875 -12.640625 C 4.921875 -13.253906 6.003906 -13.5625 7.171875 -13.5625 C 8.335938 -13.5625 9.421875 -13.253906 10.421875 -12.640625 C 11.421875 -12.023438 12.21875 -11.1875 12.8125 -10.125 C 13.40625 -9.0625 13.703125 -7.90625 13.703125 -6.65625 C 13.703125 -5.394531 13.40625 -4.234375 12.8125 -3.171875 C 12.21875 -2.117188 11.421875 -1.285156 10.421875 -0.671875 C 9.421875 -0.0546875 8.335938 0.25 7.171875 0.25 Z M 7.171875 -2.375 C 7.859375 -2.375 8.488281 -2.5625 9.0625 -2.9375 C 9.644531 -3.3125 10.109375 -3.820312 10.453125 -4.46875 C 10.804688 -5.125 10.984375 -5.851562 10.984375 -6.65625 C 10.984375 -7.457031 10.804688 -8.179688 10.453125 -8.828125 C 10.109375 -9.484375 9.644531 -10 9.0625 -10.375 C 8.488281 -10.75 7.859375 -10.9375 7.171875 -10.9375 C 6.484375 -10.9375 5.847656 -10.75 5.265625 -10.375 C 4.679688 -10 4.210938 -9.484375 3.859375 -8.828125 C 3.515625 -8.179688 3.34375 -7.457031 3.34375 -6.65625 C 3.34375 -5.851562 3.515625 -5.125 3.859375 -4.46875 C 4.210938 -3.820312 4.679688 -3.3125 5.265625 -2.9375 C 5.847656 -2.5625 6.484375 -2.375 7.171875 -2.375 Z M 7.171875 -2.375 "/></g></g></g><g fill="#767fa7" fill-opacity="1"><g transform="translate(160.205713, 112.686462)"><g><path d="M 6.59375 0.25 C 5.539062 0.25 4.601562 0.015625 3.78125 -0.453125 C 2.96875 -0.921875 2.335938 -1.5625 1.890625 -2.375 C 1.453125 -3.195312 1.234375 -4.109375 1.234375 -5.109375 L 1.234375 -13.3125 L 3.953125 -13.3125 L 3.953125 -5.109375 C 3.953125 -4.316406 4.1875 -3.660156 4.65625 -3.140625 C 5.125 -2.628906 5.769531 -2.375 6.59375 -2.375 C 7.414062 -2.375 8.0625 -2.628906 8.53125 -3.140625 C 9 -3.660156 9.234375 -4.316406 9.234375 -5.109375 L 9.234375 -13.3125 L 11.953125 -13.3125 L 11.953125 -5.109375 C 11.953125 -4.109375 11.726562 -3.195312 11.28125 -2.375 C 10.84375 -1.5625 10.210938 -0.921875 9.390625 -0.453125 C 8.578125 0.015625 7.644531 0.25 6.59375 0.25 Z M 6.59375 0.25 "/></g></g></g><g fill="#767fa7" fill-opacity="1"><g transform="translate(174.592753, 112.686462)"><g><path d="M 8.484375 0 L 5.8125 -4.796875 L 4.046875 -4.796875 L 4.046875 0 L 1.328125 0 L 1.328125 -13.3125 L 6.734375 -13.3125 C 7.578125 -13.3125 8.34375 -13.125 9.03125 -12.75 C 9.71875 -12.382812 10.253906 -11.875 10.640625 -11.21875 C 11.035156 -10.570312 11.234375 -9.835938 11.234375 -9.015625 C 11.234375 -8.160156 10.984375 -7.394531 10.484375 -6.71875 C 9.992188 -6.039062 9.328125 -5.535156 8.484375 -5.203125 L 11.625 0 Z M 4.046875 -10.71875 L 4.046875 -7.265625 L 6.65625 -7.265625 C 7.1875 -7.265625 7.628906 -7.425781 7.984375 -7.75 C 8.335938 -8.070312 8.515625 -8.488281 8.515625 -9 C 8.515625 -9.5 8.335938 -9.910156 7.984375 -10.234375 C 7.628906 -10.554688 7.1875 -10.71875 6.65625 -10.71875 Z M 4.046875 -10.71875 "/></g></g></g><g fill="#767fa7" fill-opacity="1"><g transform="translate(187.877553, 112.686462)"><g/></g></g><g fill="#767fa7" fill-opacity="1"><g transform="translate(193.864713, 112.686462)"><g><path d="M 6.40625 -13.3125 C 7.269531 -13.3125 8.050781 -13.113281 8.75 -12.71875 C 9.457031 -12.320312 10.015625 -11.78125 10.421875 -11.09375 C 10.828125 -10.414062 11.03125 -9.648438 11.03125 -8.796875 C 11.03125 -7.953125 10.828125 -7.1875 10.421875 -6.5 C 10.015625 -5.8125 9.457031 -5.269531 8.75 -4.875 C 8.050781 -4.488281 7.269531 -4.296875 6.40625 -4.296875 L 4.046875 -4.296875 L 4.046875 0 L 1.328125 0 L 1.328125 -13.3125 Z M 6.34375 -6.921875 C 6.894531 -6.921875 7.359375 -7.097656 7.734375 -7.453125 C 8.117188 -7.816406 8.3125 -8.265625 8.3125 -8.796875 C 8.3125 -9.335938 8.117188 -9.785156 7.734375 -10.140625 C 7.359375 -10.503906 6.894531 -10.6875 6.34375 -10.6875 L 4.046875 -10.6875 L 4.046875 -6.921875 Z M 6.34375 -6.921875 "/></g></g></g><g fill="#767fa7" fill-opacity="1"><g transform="translate(206.750425, 112.686462)"><g><path d="M 10.234375 0 L 1.328125 0 L 1.328125 -13.3125 L 4.046875 -13.3125 L 4.046875 -2.625 L 10.234375 -2.625 Z M 10.234375 0 "/></g></g></g><g fill="#767fa7" fill-opacity="1"><g transform="translate(218.362848, 112.686462)"><g><path d="M 12.453125 0 L 9.609375 0 L 8.640625 -2.734375 L 3.609375 -2.734375 L 2.640625 0 L -0.109375 0 L 4.84375 -13.3125 L 7.515625 -13.3125 Z M 7.734375 -5.25 L 6.125 -9.921875 L 4.5 -5.25 Z M 7.734375 -5.25 "/></g></g></g><g fill="#767fa7" fill-opacity="1"><g transform="translate(231.894696, 112.686462)"><g><path d="M 7.171875 0.25 C 6.003906 0.25 4.921875 -0.0546875 3.921875 -0.671875 C 2.921875 -1.285156 2.117188 -2.117188 1.515625 -3.171875 C 0.921875 -4.234375 0.625 -5.394531 0.625 -6.65625 C 0.625 -7.90625 0.921875 -9.0625 1.515625 -10.125 C 2.117188 -11.1875 2.921875 -12.023438 3.921875 -12.640625 C 4.921875 -13.253906 6.003906 -13.5625 7.171875 -13.5625 C 8.234375 -13.5625 9.179688 -13.320312 10.015625 -12.84375 C 10.859375 -12.363281 11.546875 -11.75 12.078125 -11 C 12.617188 -10.25 12.992188 -9.441406 13.203125 -8.578125 L 10.359375 -8.578125 C 10.179688 -9.210938 9.8125 -9.765625 9.25 -10.234375 C 8.695312 -10.703125 8.003906 -10.9375 7.171875 -10.9375 C 6.484375 -10.9375 5.847656 -10.75 5.265625 -10.375 C 4.679688 -10 4.210938 -9.484375 3.859375 -8.828125 C 3.515625 -8.179688 3.34375 -7.457031 3.34375 -6.65625 C 3.34375 -5.851562 3.515625 -5.125 3.859375 -4.46875 C 4.210938 -3.820312 4.679688 -3.3125 5.265625 -2.9375 C 5.847656 -2.5625 6.484375 -2.375 7.171875 -2.375 C 8.003906 -2.375 8.703125 -2.601562 9.265625 -3.0625 C 9.828125 -3.53125 10.222656 -4.082031 10.453125 -4.71875 L 13.296875 -4.71875 C 13.085938 -3.863281 12.710938 -3.054688 12.171875 -2.296875 C 11.640625 -1.546875 10.941406 -0.929688 10.078125 -0.453125 C 9.222656 0.015625 8.253906 0.25 7.171875 0.25 Z M 7.171875 0.25 "/></g></g></g><g fill="#767fa7" fill-opacity="1"><g transform="translate(246.90887, 112.686462)"><g><path d="M 4.046875 -5.53125 L 4.046875 -2.59375 L 10.625 -2.59375 L 10.625 0 L 1.328125 0 L 1.328125 -13.3125 L 10.4375 -13.3125 L 10.4375 -10.71875 L 4.046875 -10.71875 L 4.046875 -8.046875 L 9.71875 -8.046875 L 9.71875 -5.53125 Z M 4.046875 -5.53125 "/></g></g></g><g fill="#767fa7" fill-opacity="1"><g transform="translate(259.433494, 112.686462)"><g/></g></g><g fill="#767fa7" fill-opacity="1"><g transform="translate(265.420648, 112.686462)"><g><path d="M 6.84375 0 L 4.125 0 L 4.125 -10.6875 L 0.265625 -10.6875 L 0.265625 -13.3125 L 10.703125 -13.3125 L 10.703125 -10.6875 L 6.84375 -10.6875 Z M 6.84375 0 "/></g></g></g><g fill="#767fa7" fill-opacity="1"><g transform="translate(277.584191, 112.686462)"><g><path d="M 7.171875 0.25 C 6.003906 0.25 4.921875 -0.0546875 3.921875 -0.671875 C 2.921875 -1.285156 2.117188 -2.117188 1.515625 -3.171875 C 0.921875 -4.234375 0.625 -5.394531 0.625 -6.65625 C 0.625 -7.90625 0.921875 -9.0625 1.515625 -10.125 C 2.117188 -11.1875 2.921875 -12.023438 3.921875 -12.640625 C 4.921875 -13.253906 6.003906 -13.5625 7.171875 -13.5625 C 8.335938 -13.5625 9.421875 -13.253906 10.421875 -12.640625 C 11.421875 -12.023438 12.21875 -11.1875 12.8125 -10.125 C 13.40625 -9.0625 13.703125 -7.90625 13.703125 -6.65625 C 13.703125 -5.394531 13.40625 -4.234375 12.8125 -3.171875 C 12.21875 -2.117188 11.421875 -1.285156 10.421875 -0.671875 C 9.421875 -0.0546875 8.335938 0.25 7.171875 0.25 Z M 7.171875 -2.375 C 7.859375 -2.375 8.488281 -2.5625 9.0625 -2.9375 C 9.644531 -3.3125 10.109375 -3.820312 10.453125 -4.46875 C 10.804688 -5.125 10.984375 -5.851562 10.984375 -6.65625 C 10.984375 -7.457031 10.804688 -8.179688 10.453125 -8.828125 C 10.109375 -9.484375 9.644531 -10 9.0625 -10.375 C 8.488281 -10.75 7.859375 -10.9375 7.171875 -10.9375 C 6.484375 -10.9375 5.847656 -10.75 5.265625 -10.375 C 4.679688 -10 4.210938 -9.484375 3.859375 -8.828125 C 3.515625 -8.179688 3.34375 -7.457031 3.34375 -6.65625 C 3.34375 -5.851562 3.515625 -5.125 3.859375 -4.46875 C 4.210938 -3.820312 4.679688 -3.3125 5.265625 -2.9375 C 5.847656 -2.5625 6.484375 -2.375 7.171875 -2.375 Z M 7.171875 -2.375 "/></g></g></g><g fill="#767fa7" fill-opacity="1"><g transform="translate(293.111485, 112.686462)"><g/></g></g><g fill="#767fa7" fill-opacity="1"><g transform="translate(299.09864, 112.686462)"><g><path d="M 8.484375 0 L 5.8125 -4.796875 L 4.046875 -4.796875 L 4.046875 0 L 1.328125 0 L 1.328125 -13.3125 L 6.734375 -13.3125 C 7.578125 -13.3125 8.34375 -13.125 9.03125 -12.75 C 9.71875 -12.382812 10.253906 -11.875 10.640625 -11.21875 C 11.035156 -10.570312 11.234375 -9.835938 11.234375 -9.015625 C 11.234375 -8.160156 10.984375 -7.394531 10.484375 -6.71875 C 9.992188 -6.039062 9.328125 -5.535156 8.484375 -5.203125 L 11.625 0 Z M 4.046875 -10.71875 L 4.046875 -7.265625 L 6.65625 -7.265625 C 7.1875 -7.265625 7.628906 -7.425781 7.984375 -7.75 C 8.335938 -8.070312 8.515625 -8.488281 8.515625 -9 C 8.515625 -9.5 8.335938 -9.910156 7.984375 -10.234375 C 7.628906 -10.554688 7.1875 -10.71875 6.65625 -10.71875 Z M 4.046875 -10.71875 "/></g></g></g><g fill="#767fa7" fill-opacity="1"><g transform="translate(312.383433, 112.686462)"><g><path d="M 4.046875 -5.53125 L 4.046875 -2.59375 L 10.625 -2.59375 L 10.625 0 L 1.328125 0 L 1.328125 -13.3125 L 10.4375 -13.3125 L 10.4375 -10.71875 L 4.046875 -10.71875 L 4.046875 -8.046875 L 9.71875 -8.046875 L 9.71875 -5.53125 Z M 4.046875 -5.53125 "/></g></g></g><g fill="#767fa7" fill-opacity="1"><g transform="translate(324.908057, 112.686462)"><g><path d="M 12.453125 0 L 9.609375 0 L 8.640625 -2.734375 L 3.609375 -2.734375 L 2.640625 0 L -0.109375 0 L 4.84375 -13.3125 L 7.515625 -13.3125 Z M 7.734375 -5.25 L 6.125 -9.921875 L 4.5 -5.25 Z M 7.734375 -5.25 "/></g></g></g><g fill="#767fa7" fill-opacity="1"><g transform="translate(338.439912, 112.686462)"><g><path d="M 1.328125 0 L 1.328125 -13.3125 L 5.75 -13.3125 C 6.9375 -13.3125 8.03125 -13.007812 9.03125 -12.40625 C 10.039062 -11.8125 10.84375 -11.003906 11.4375 -9.984375 C 12.03125 -8.972656 12.328125 -7.863281 12.328125 -6.65625 C 12.328125 -5.4375 12.023438 -4.316406 11.421875 -3.296875 C 10.828125 -2.285156 10.023438 -1.484375 9.015625 -0.890625 C 8.015625 -0.296875 6.925781 0 5.75 0 Z M 5.75 -2.625 C 6.425781 -2.625 7.054688 -2.800781 7.640625 -3.15625 C 8.234375 -3.507812 8.707031 -3.992188 9.0625 -4.609375 C 9.425781 -5.222656 9.609375 -5.90625 9.609375 -6.65625 C 9.609375 -7.40625 9.425781 -8.085938 9.0625 -8.703125 C 8.707031 -9.316406 8.234375 -9.800781 7.640625 -10.15625 C 7.054688 -10.507812 6.425781 -10.6875 5.75 -10.6875 L 4.046875 -10.6875 L 4.046875 -2.625 Z M 5.75 -2.625 "/></g></g></g></svg>